<svg width="168" height="281" viewBox="0 0 168 281" fill="none" xmlns="http://www.w3.org/2000/svg">
<path fill-rule="evenodd" clip-rule="evenodd" d="M0 -9.90063H168V181.693H0V-9.90063Z" fill="#4AF6CD"/>
<path d="M60.22 145.997C60.22 142.837 60.68 140.057 61.6 137.657C62.52 135.217 63.9 133.037 65.74 131.117L71.62 136.097C69.34 138.977 68.2 141.997 68.2 145.157C68.2 146.797 68.52 148.057 69.16 148.937C69.76 149.777 70.62 150.197 71.74 150.197C72.54 150.197 73.2 149.977 73.72 149.537C74.24 149.097 74.74 148.357 75.22 147.317C75.7 146.277 76.3 144.637 77.02 142.397C78.38 138.117 80.1 134.997 82.18 133.037C84.22 131.037 87.06 130.037 90.7 130.037C93.34 130.037 95.68 130.717 97.72 132.077C99.72 133.437 101.28 135.417 102.4 138.017C103.52 140.577 104.08 143.597 104.08 147.077C104.08 153.717 102.06 159.137 98.02 163.337L91.96 157.877C94.68 154.557 96.04 151.097 96.04 147.497C96.04 145.617 95.64 144.157 94.84 143.117C94 142.077 92.9 141.557 91.54 141.557C90.58 141.557 89.8 141.757 89.2 142.157C88.56 142.557 88 143.277 87.52 144.317C87 145.317 86.44 146.797 85.84 148.757C84.36 153.477 82.58 156.797 80.5 158.717C78.42 160.637 75.8 161.597 72.64 161.597C70.16 161.597 67.98 160.937 66.1 159.617C64.22 158.257 62.78 156.397 61.78 154.037C60.74 151.637 60.22 148.957 60.22 145.997ZM89.02 92.5919C91.9 92.5919 94.48 93.2319 96.76 94.5119C99.04 95.7519 100.84 97.6319 102.16 100.152C103.44 102.672 104.08 105.752 104.08 109.392C104.08 114.912 102.74 119.092 100.06 121.932C97.34 124.772 93.66 126.192 89.02 126.192H61.3V115.092H88.66C91.18 115.092 93.04 114.652 94.24 113.772C95.4 112.852 95.98 111.392 95.98 109.392C95.98 107.392 95.38 105.952 94.18 105.072C92.98 104.192 91.14 103.752 88.66 103.752H61.3V92.5919H89.02ZM87.64 72.5843V75.6443H103V86.7443H61.3V72.2843C61.3 66.4043 62.36 62.0243 64.48 59.1443C66.6 56.2243 69.86 54.7643 74.26 54.7643C76.9 54.7643 79.1 55.3843 80.86 56.6242C82.62 57.8243 84.2 59.7643 85.6 62.4443L103 52.0643V64.4243L87.64 72.5843ZM80.08 75.6443V71.9243C80.08 68.0843 78.14 66.1643 74.26 66.1643C72.46 66.1643 71.14 66.7043 70.3 67.7843C69.46 68.8243 69.04 70.4043 69.04 72.5243V75.6443H80.08ZM103 49.5372H61.3V23.9172L69.16 25.0572V38.4372H79.18V26.6772H87.04V38.4372H103V49.5372Z" fill="white"/>
<path d="M60.22 258.92C60.22 253.36 61.98 248.58 65.5 244.58L71.2 250.04C70.12 251.56 69.34 252.94 68.86 254.18C68.34 255.38 68.08 256.76 68.08 258.32C68.08 261.32 69.24 263.68 71.56 265.4C73.88 267.08 77.42 267.92 82.18 267.92C85.66 267.92 88.42 267.64 90.46 267.08C92.46 266.52 93.9 265.68 94.78 264.56C95.66 263.4 96.1 261.92 96.1 260.12C96.1 258.32 95.72 256.68 94.96 255.2H86.38V259.94L78.76 261.02V244.46H99.52C100.96 246.62 102.08 249.06 102.88 251.78C103.68 254.5 104.08 257.18 104.08 259.82C104.08 272.86 96.76 279.38 82.12 279.38C77.56 279.38 73.64 278.5 70.36 276.74C67.04 274.94 64.52 272.5 62.8 269.42C61.08 266.34 60.22 262.84 60.22 258.92ZM60.22 221.335C60.22 215.295 62.14 210.595 65.98 207.235C69.82 203.875 75.2 202.195 82.12 202.195C86.64 202.195 90.56 202.955 93.88 204.475C97.16 205.955 99.68 208.135 101.44 211.015C103.2 213.895 104.08 217.335 104.08 221.335C104.08 227.375 102.16 232.075 98.32 235.435C94.48 238.755 89.08 240.415 82.12 240.415C77.6 240.415 73.7 239.675 70.42 238.195C67.14 236.675 64.62 234.495 62.86 231.655C61.1 228.775 60.22 225.335 60.22 221.335ZM68.2 221.335C68.2 223.935 69.28 225.855 71.44 227.095C73.6 228.295 77.16 228.895 82.12 228.895C87.08 228.895 90.66 228.275 92.86 227.035C95.02 225.795 96.1 223.895 96.1 221.335C96.1 218.695 95.02 216.775 92.86 215.575C90.7 214.375 87.12 213.775 82.12 213.775C77.16 213.775 73.6 214.375 71.44 215.575C69.28 216.775 68.2 218.695 68.2 221.335Z" fill="white"/>
<rect x="83" y="191.724" width="20.0621" height="1" transform="rotate(-90 83 191.724)" fill="white"/>
</svg>
